<svg width="32" height="32" viewBox="0 0 32 32" fill="none" xmlns="http://www.w3.org/2000/svg">
<path fill-rule="evenodd" clip-rule="evenodd" d="M11 16C11 17.1046 10.1046 18 9 18C7.89543 18 7 17.1046 7 16C7 14.8954 7.89543 14 9 14C10.1046 14 11 14.8954 11 16ZM18 16C18 17.1046 17.1046 18 16 18C14.8954 18 14 17.1046 14 16C14 14.8954 14.8954 14 16 14C17.1046 14 18 14.8954 18 16ZM23 18C24.1046 18 25 17.1046 25 16C25 14.8954 24.1046 14 23 14C21.8954 14 21 14.8954 21 16C21 17.1046 21.8954 18 23 18Z" fill="currentColor"/>
</svg>
