<svg width="24" height="24" viewBox="0 0 24 24" fill="none" xmlns="http://www.w3.org/2000/svg">
<path fill-rule="evenodd" clip-rule="evenodd" d="M16.1931 15.2167C16.9569 15.1536 17.4838 15.0109 17.9045 14.6881C18.0987 14.5391 18.2724 14.3653 18.4214 14.1712C19 13.4171 19 12.3225 19 10.1333C19 7.94413 19 6.84953 18.4214 6.09547C18.2724 5.90134 18.0987 5.72757 17.9045 5.57861C17.1505 5 16.0559 5 13.8667 5C11.6775 5 10.5829 5 9.8288 5.57861C9.63467 5.72757 9.46091 5.90134 9.31194 6.09547C8.98907 6.51625 8.84636 7.04306 8.78329 7.80694C9.17939 7.79998 9.61094 7.79999 10.0791 7.8H10.1876C11.236 7.79998 12.101 7.79996 12.795 7.8782C13.5198 7.95991 14.1728 8.13673 14.7394 8.57148C14.9982 8.7701 15.2299 9.00179 15.4285 9.26063C15.8633 9.82721 16.0401 10.4802 16.1218 11.205C16.2 11.899 16.2 12.764 16.2 13.8124V13.9209C16.2 14.3891 16.2 14.8206 16.1931 15.2167ZM10.1333 8.73334C9.61023 8.73334 9.14962 8.73334 8.74123 8.74123C7.44047 8.76637 6.66935 8.87159 6.09547 9.31194C5.90134 9.46091 5.72757 9.63467 5.57861 9.8288C5 10.5829 5 11.6775 5 13.8667C5 16.0559 5 17.1505 5.57861 17.9045C5.72757 18.0987 5.90134 18.2724 6.09547 18.4214C6.84953 19 7.94413 19 10.1333 19C12.3225 19 13.4171 19 14.1712 18.4214C14.3653 18.2724 14.5391 18.0987 14.6881 17.9045C15.1284 17.3307 15.2336 16.5595 15.2588 15.2588C15.2662 14.8759 15.2666 14.4471 15.2667 13.964L15.2667 13.8667C15.2667 11.6775 15.2667 10.5829 14.6881 9.8288C14.5391 9.63467 14.3653 9.46091 14.1712 9.31195C13.4171 8.73334 12.3225 8.73334 10.1333 8.73334ZM10.1333 11.5333C10.3911 11.5333 10.6 11.7423 10.6 12V13.4H12C12.2577 13.4 12.4667 13.6089 12.4667 13.8667C12.4667 14.1244 12.2577 14.3333 12 14.3333H10.6V15.7333C10.6 15.9911 10.3911 16.2 10.1333 16.2C9.8756 16.2 9.66667 15.9911 9.66667 15.7333V14.3333H8.26667C8.00893 14.3333 7.8 14.1244 7.8 13.8667C7.8 13.6089 8.00893 13.4 8.26667 13.4H9.66667V12C9.66667 11.7423 9.8756 11.5333 10.1333 11.5333Z" fill="currentColor"/>
</svg>
