<svg width="12" height="12" viewBox="0 0 12 12" xmlns="http://www.w3.org/2000/svg">
<path d="M4.25 4.25V2.68578C4.25 1.80907 5.02189 1.25 5.77519 1.25H9.22481C9.60166 1.25 9.9788 1.3816 10.2699 1.63912C10.564 1.89927 10.75 2.27325 10.75 2.68578V6.31422C10.75 7.19093 9.97811 7.75 9.22481 7.75H7.75V9.31413C7.75 10.1942 6.97261 10.75 6.22082 10.75H2.77918C2.02787 10.75 1.251 10.195 1.25 9.31567V5.68587C1.25 4.80583 2.02739 4.25 2.77918 4.25H4.25ZM5.75 4.25V2.75242C5.75693 2.75099 5.7653 2.75 5.77519 2.75H9.22481C9.23404 2.75 9.24254 2.751 9.25 2.75259V6.24758C9.24307 6.24901 9.2347 6.25 9.22481 6.25H7.75V5.68587C7.75 4.80583 6.97261 4.25 6.22082 4.25H5.75ZM6.25 5.75309C6.24199 5.75127 6.23227 5.75 6.22082 5.75H2.77918C2.76773 5.75 2.75801 5.75127 2.75 5.75309V9.24691C2.75801 9.24873 2.76773 9.25 2.77918 9.25H6.22082C6.23227 9.25 6.24199 9.24873 6.25 9.24691V5.75309Z"/>
</svg>
