<svg width="24" height="24" viewBox="0 0 24 24" xmlns="http://www.w3.org/2000/svg">
<path d="M5.0841 11.7768L5.61088 16.3741C5.754 17.6231 5.82556 18.2477 6.25898 18.6238C6.6924 19 7.34039 19 8.63638 19H9.97059V15.0642C9.97059 13.9773 10.8792 13.0963 12 13.0963C13.1208 13.0963 14.0294 13.9773 14.0294 15.0642V19H15.3636C16.6596 19 17.3076 19 17.741 18.6238C18.1744 18.2477 18.246 17.6231 18.3891 16.3741L18.9159 11.7768C19.0073 10.9789 19.053 10.5799 18.9003 10.2268C18.7476 9.87362 18.4221 9.62563 17.7711 9.12966L13.2538 5.6879C12.6519 5.2293 12.3509 5 12 5C11.6491 5 11.3481 5.2293 10.7462 5.6879L6.22888 9.12966C5.57791 9.62563 5.25243 9.87362 5.0997 10.2268C4.94697 10.5799 4.99268 10.9789 5.0841 11.7768Z"/>
</svg>
