<svg width="24" height="24" viewBox="0 0 24 24" fill="none" xmlns="http://www.w3.org/2000/svg">
<path fill-rule="evenodd" clip-rule="evenodd" d="M6 5C5.44772 5 5 5.44772 5 6V7C5 7.55228 5.44772 8 6 8H7C7.55228 8 8 7.55228 8 7V6C8 5.44772 7.55228 5 7 5H6ZM11 5C10.4477 5 10 5.44772 10 6V7C10 7.55228 10.4477 8 11 8H18C18.5523 8 19 7.55228 19 7V6C19 5.44772 18.5523 5 18 5H11ZM11 10.5C10.4477 10.5 10 10.9477 10 11.5V12.5C10 13.0523 10.4477 13.5 11 13.5H18C18.5523 13.5 19 13.0523 19 12.5V11.5C19 10.9477 18.5523 10.5 18 10.5H11ZM10 17C10 16.4477 10.4477 16 11 16H18C18.5523 16 19 16.4477 19 17V18C19 18.5523 18.5523 19 18 19H11C10.4477 19 10 18.5523 10 18V17ZM5 11.5C5 10.9477 5.44772 10.5 6 10.5H7C7.55228 10.5 8 10.9477 8 11.5V12.5C8 13.0523 7.55228 13.5 7 13.5H6C5.44772 13.5 5 13.0523 5 12.5V11.5ZM6 16C5.44772 16 5 16.4477 5 17V18C5 18.5523 5.44772 19 6 19H7C7.55228 19 8 18.5523 8 18V17C8 16.4477 7.55228 16 7 16H6Z" fill="currentColor"/>
</svg>
