<svg height="24" viewBox="0 0 24 24" width="24" xmlns="http://www.w3.org/2000/svg"><path clip-rule="evenodd" d="m9.41699 4.833c0-1.42595 1.15551-2.583 2.58301-2.583s2.583 1.15705 2.583 2.583v.34545c2.0954.70065 3.605 2.67908 3.605 5.00955v2.797c0 .3309.1318.6492.3663.8837l.641.641c.5155.5155.8057 1.2152.8057 1.9443 0 1.4582-1.1818 2.64-2.64 2.64h-2.3432c-.1897 1.4979-1.4683 2.656-3.0178 2.656s-2.82855-1.1583-3.01784-2.656h-2.34216c-1.45821 0-2.64-1.1818-2.64-2.64 0-.7291.29018-1.4288.80567-1.9443l.641-.641c.23451-.2345.36633-.5528.36633-.8837v-2.797c0-2.33089 1.50969-4.30835 3.60399-5.00917zm1.50001.07691c.0588-.00194.1178-.00291.177-.00291h1.813c.0589 0 .1176.00096.176.00287v-.07687c0-.59805-.4845-1.083-1.083-1.083s-1.083.48495-1.083 1.083zm-.4105 14.18409c.1711.6645.7746 1.156 1.4935 1.156.7185 0 1.322-.4911 1.4933-1.156zm3.8245-1.5c-.0129-.0007-.0259-.001-.039-.001s-.0261.0003-.039.001h-7.613c-.62979 0-1.14-.5102-1.14-1.14 0-.3309.13182-.6492.36633-.8837l.641-.641c.51549-.5155.80567-1.2152.80567-1.9443v-2.797c0-2.08868 1.69311-3.781 3.781-3.781h1.813c2.0887 0 3.781 1.6931 3.781 3.781v2.797c0 .7291.2902 1.4288.8057 1.9443l.641.641c.2345.2345.3663.5528.3663.8837 0 .6298-.5102 1.14-1.14 1.14z" fill-rule="evenodd"/></svg>