<svg xmlns="http://www.w3.org/2000/svg" width="24" height="24" viewBox="0 0 24 24" fill="none">
    <path fill-rule="evenodd" clip-rule="evenodd" d="M13 6C13 5.44772 12.5523 5 12 5C11.4477 5 11 5.44772 11 6V6.28261C11 6.75821 10.6602 7.15795 10.2159 7.32769C10.1286 7.36103 10.0426 7.39674 9.95773 7.43475C9.52374 7.62919 9.00089 7.58679 8.66462 7.25052L8.46435 7.05026C8.07383 6.65973 7.44066 6.65973 7.05014 7.05026C6.65961 7.44078 6.65961 8.07395 7.05014 8.46447L7.25045 8.66478C7.58671 9.00104 7.62911 9.52388 7.43469 9.95786C7.39671 10.0426 7.36101 10.1287 7.32769 10.2159C7.15795 10.6602 6.75821 11 6.28261 11H6C5.44772 11 5 11.4477 5 12C5 12.5523 5.44772 13 6 13H6.28261C6.75821 13 7.15795 13.3398 7.32769 13.7841C7.36103 13.8713 7.39673 13.9574 7.43473 14.0422C7.62917 14.4762 7.58677 14.9991 7.2505 15.3353L7.05029 15.5355C6.65976 15.9261 6.65976 16.5592 7.05029 16.9498C7.44081 17.3403 8.07398 17.3403 8.4645 16.9498L8.66473 16.7495C9.00099 16.4133 9.52383 16.3709 9.95782 16.5653C10.0426 16.6033 10.1287 16.639 10.2159 16.6723C10.6602 16.8421 11 17.2418 11 17.7174V18C11 18.5523 11.4477 19 12 19C12.5523 19 13 18.5523 13 18V17.7174C13 17.2418 13.3398 16.8421 13.7841 16.6723C13.8713 16.639 13.9574 16.6033 14.0421 16.5653C14.4761 16.3709 14.999 16.4133 15.3352 16.7495L15.5354 16.9498C15.9259 17.3403 16.5591 17.3403 16.9496 16.9498C17.3402 16.5592 17.3402 15.9261 16.9496 15.5355L16.7495 15.3354C16.4132 14.9991 16.3708 14.4763 16.5653 14.0423C16.6033 13.9574 16.639 13.8714 16.6723 13.7841C16.8421 13.3398 17.2418 13 17.7174 13H18C18.5523 13 19 12.5523 19 12C19 11.4477 18.5523 11 18 11H17.7174C17.2418 11 16.8421 10.6602 16.6723 10.2159C16.639 10.1287 16.6033 10.0426 16.5653 9.95781C16.3709 9.52383 16.4133 9.00099 16.7495 8.66473L16.9498 8.46448C17.3403 8.07395 17.3403 7.44079 16.9498 7.05026C16.5593 6.65974 15.9261 6.65974 15.5356 7.05026L15.3353 7.2505C14.9991 7.58677 14.4762 7.62917 14.0422 7.43473C13.9574 7.39673 13.8714 7.36102 13.7841 7.32769C13.3398 7.15795 13 6.75821 13 6.28261V6ZM12 14C13.1046 14 14 13.1046 14 12C14 10.8954 13.1046 10 12 10C10.8954 10 10 10.8954 10 12C10 13.1046 10.8954 14 12 14Z" fill="currentColor"/>
</svg>