<svg width="24" height="24" viewBox="0 0 24 24" fill="none" xmlns="http://www.w3.org/2000/svg">
<path fill-rule="evenodd" clip-rule="evenodd" d="M14.2146 6.60349C14.117 6.50586 14.1207 6.34383 14.223 6.24158L14.9635 5.50105C15.4747 4.98981 16.2849 4.9711 16.773 5.45925L18.5408 7.22701C19.0289 7.71516 19.0102 8.52532 18.499 9.03655L17.7585 9.77709C17.6562 9.87933 17.4942 9.88307 17.3965 9.78544L14.2146 6.60349ZM14.01 7.63308C13.6846 7.30765 13.1445 7.32012 12.8037 7.66094L6.83823 13.6264C6.70471 13.7599 6.61614 13.9312 6.58581 14.1145L6.11868 16.9386C6.02525 17.5035 6.49665 17.9749 7.06148 17.8814L9.88562 17.4143C10.0689 17.384 10.2402 17.2954 10.3737 17.1619L16.3392 11.1964C16.68 10.8556 16.6925 10.3155 16.367 9.99008L14.01 7.63308Z" fill="currentColor"/>
</svg>
