<svg width="24" height="24" viewBox="0 0 24 24" fill="none" xmlns="http://www.w3.org/2000/svg">
<path d="M7.8 6H9.57139C10.0716 6 10.3217 6 10.546 6.08064C10.683 6.12988 10.8117 6.20073 10.9275 6.29064C11.1171 6.43788 11.2559 6.65192 11.5333 7.08C11.7183 7.36539 11.8108 7.50808 11.9372 7.60624C12.0144 7.66618 12.1002 7.71341 12.1916 7.74624C12.3411 7.8 12.5078 7.8 12.8413 7.8H16.2C17.5199 7.8 18.1799 7.8 18.5899 8.22177C19 8.64353 19 9.32235 19 10.68V15.12C19 16.4776 19 17.1565 18.5899 17.5782C18.1799 18 17.5199 18 16.2 18H7.8C6.48007 18 5.8201 18 5.41005 17.5782C5 17.1565 5 16.4776 5 15.12V8.88C5 7.52235 5 6.84353 5.41005 6.42177C5.8201 6 6.48007 6 7.8 6Z" fill="currentColor"/>
</svg>
