<svg width="24" height="24" viewBox="0 0 24 24" fill="none" xmlns="http://www.w3.org/2000/svg">
<path fill-rule="evenodd" clip-rule="evenodd" d="M5 10.1231C5 8.6232 5 7.87325 5.42359 7.33073C5.84718 6.78821 6.57474 6.60632 8.02986 6.24254C10.3177 5.67057 11.4616 5.38459 12.2308 5.98514C13 6.5857 13 7.76483 13 10.1231V13.8769C13 16.2352 13 17.4143 12.2308 18.0149C11.4616 18.6154 10.3177 18.3294 8.02986 17.7575C6.57474 17.3937 5.84718 17.2118 5.42359 16.6693C5 16.1268 5 15.3768 5 13.8769V10.1231ZM12 13C12 13.5523 11.5523 14 11 14C10.4477 14 10 13.5523 10 13C10 12.4477 10.4477 12 11 12C11.5523 12 12 12.4477 12 13ZM14.2661 17.4318C14.6694 17.4064 14.988 17.2991 15.2573 17.0814C15.9999 16.481 15.9999 15.338 15.9999 13.0521V12.75H16H18.1893L17.4697 13.4697C17.1768 13.7626 17.1768 14.2374 17.4697 14.5303C17.7626 14.8232 18.2374 14.8232 18.5303 14.5303L20.5303 12.5303C20.8232 12.2374 20.8232 11.7626 20.5303 11.4697L18.5303 9.46967C18.2374 9.17678 17.7626 9.17678 17.4697 9.46967C17.1768 9.76256 17.1768 10.2374 17.4697 10.5303L18.1893 11.25H16H15.9999V10.948C15.9999 8.66202 15.9999 7.51904 15.2573 6.91867C14.988 6.70098 14.6694 6.59371 14.2661 6.56824C14.3201 6.77286 14.3591 6.97834 14.3884 7.18023C14.5002 7.95316 14.5001 8.92955 14.5 10.0198V10.0198V10.0198L14.5 10.1231V13.8769L14.5 13.9802V13.9802V13.9802C14.5001 15.0705 14.5002 16.0468 14.3884 16.8198C14.3591 17.0217 14.3201 17.2272 14.2661 17.4318Z" fill="currentColor"/>
</svg>
