<svg width="32" height="32" viewBox="0 0 32 32" fill="none" xmlns="http://www.w3.org/2000/svg">
<path fill-rule="evenodd" clip-rule="evenodd" d="M6.07861 14.7452C6.07861 9.95915 9.95848 6.07928 14.7445 6.07928C19.5306 6.07928 23.4105 9.95915 23.4105 14.7452C23.4105 17.1268 22.4497 19.284 20.8947 20.8504C20.887 20.8575 20.8795 20.8648 20.872 20.8722C20.8646 20.8796 20.8573 20.8872 20.8502 20.8949C19.2838 22.4502 17.1264 23.4111 14.7445 23.4111C9.95848 23.4111 6.07861 19.5313 6.07861 14.7452ZM21.3834 22.4442C19.6022 23.9815 17.282 24.9111 14.7445 24.9111C9.13005 24.9111 4.57861 20.3597 4.57861 14.7452C4.57861 9.13072 9.13005 4.57928 14.7445 4.57928C20.359 4.57928 24.9105 9.13072 24.9105 14.7452C24.9105 17.2824 23.981 19.6025 22.444 21.3835L27.2015 26.1411C27.4944 26.434 27.4944 26.9088 27.2015 27.2017C26.9086 27.4946 26.4338 27.4946 26.1409 27.2017L21.3834 22.4442Z" fill="currentColor"/>
</svg>
