<svg width="24" height="24" viewBox="0 0 24 24" fill="none" xmlns="http://www.w3.org/2000/svg">
<path fill-rule="evenodd" clip-rule="evenodd" d="M5.82815 8.53526C5.54811 8.25522 5.40809 8.1152 5.2261 8.18525C5.0441 8.2553 5.03502 8.43473 5.01685 8.7936C5 9.12654 5 9.52306 5 10V14C5 14.4769 5 14.8735 5.01685 15.2064C5.03502 15.5653 5.0441 15.7447 5.2261 15.8148C5.40809 15.8848 5.54811 15.7448 5.82815 15.4647L8.58579 12.7071C8.91912 12.3738 9.08579 12.2071 9.08579 12C9.08579 11.7929 8.91912 11.6262 8.58579 11.2929L5.82815 8.53526ZM6.53526 16.1719C6.25522 16.4519 6.1152 16.5919 6.18525 16.7739C6.2553 16.9559 6.43473 16.965 6.7936 16.9831C7.12655 17 7.52306 17 8 17H16C16.4769 17 16.8735 17 17.2064 16.9831C17.5653 16.965 17.7447 16.9559 17.8148 16.7739C17.8848 16.5919 17.7448 16.4519 17.4647 16.1719L14.2322 12.9393C14.104 12.8111 13.896 12.8111 13.7678 12.9393C12.7915 13.9156 11.2085 13.9157 10.2322 12.9393C10.104 12.8111 9.89603 12.8111 9.76777 12.9393L6.53526 16.1719ZM18.1719 15.4647C18.4519 15.7448 18.5919 15.8848 18.7739 15.8148C18.9559 15.7447 18.965 15.5653 18.9831 15.2064C19 14.8735 19 14.4769 19 14V10C19 9.52306 19 9.12655 18.9831 8.7936C18.965 8.43473 18.9559 8.2553 18.7739 8.18525C18.5919 8.1152 18.4519 8.25522 18.1719 8.53526L15.4142 11.2929C15.0809 11.6262 14.9142 11.7929 14.9142 12C14.9142 12.2071 15.0809 12.3738 15.4142 12.7071L18.1719 15.4647ZM17.4647 7.82815C17.7448 7.54811 17.8848 7.40809 17.8148 7.2261C17.7447 7.0441 17.5653 7.03502 17.2064 7.01685C16.8735 7 16.4769 7 16 7H8C7.52306 7 7.12654 7 6.7936 7.01685C6.43473 7.03502 6.2553 7.0441 6.18525 7.2261C6.1152 7.40809 6.25522 7.54811 6.53526 7.82815L10.3536 11.6464L10.9393 12.2322C11.5251 12.818 12.4749 12.818 13.0607 12.2322L13.6461 11.6468L13.6468 11.6461L17.4647 7.82815Z" fill="currentColor"/>
</svg>
