<svg width="12" height="12" viewBox="0 0 12 12" fill="none" xmlns="http://www.w3.org/2000/svg">
<path fill-rule="evenodd" clip-rule="evenodd" d="M6 1.71447C6.41421 1.71447 6.75 2.05026 6.75 2.46447L6.75 9.53554C6.75 9.94975 6.41421 10.2855 6 10.2855C5.58579 10.2855 5.25 9.94975 5.25 9.53554L5.25 2.46447C5.25 2.05026 5.58579 1.71447 6 1.71447Z" fill="currentColor"/>
<path fill-rule="evenodd" clip-rule="evenodd" d="M1.71447 6C1.71447 5.58579 2.05025 5.25 2.46447 5.25L9.53553 5.25C9.94975 5.25 10.2855 5.58579 10.2855 6C10.2855 6.41422 9.94975 6.75 9.53553 6.75H2.46447C2.05025 6.75 1.71447 6.41422 1.71447 6Z" fill="currentColor"/>
</svg>
