<svg width="24" height="24" viewBox="0 0 24 24" fill="none" xmlns="http://www.w3.org/2000/svg">
<path fill-rule="evenodd" clip-rule="evenodd" d="M5.24756 6.66444C5.24756 6.25023 5.58335 5.91444 5.99756 5.91444H12.0001C12.4143 5.91444 12.7501 6.25023 12.7501 6.66444C12.7501 7.07866 12.4143 7.41444 12.0001 7.41444H5.99756C5.58335 7.41444 5.24756 7.07866 5.24756 6.66444ZM16.0017 5.91444C16.4159 5.91444 16.7517 6.25023 16.7517 6.66444V16.1918L17.1387 15.8048C17.4316 15.5119 17.9065 15.5119 18.1994 15.8048C18.4923 16.0977 18.4923 16.5726 18.1994 16.8655L16.5333 18.5316C16.5329 18.532 16.5325 18.5324 16.532 18.5328C16.4123 18.6525 16.2622 18.7233 16.1066 18.7452C16.0848 18.7482 16.063 18.7503 16.0411 18.7515C16.035 18.7518 16.0289 18.752 16.0228 18.7522C16.008 18.7526 15.9932 18.7526 15.9784 18.7521C15.9733 18.752 15.9682 18.7518 15.9631 18.7515C15.8779 18.7472 15.7964 18.7286 15.721 18.6982C15.6301 18.6616 15.545 18.6065 15.4714 18.5328C15.471 18.5324 15.4705 18.532 15.4701 18.5316L13.804 16.8655C13.5111 16.5726 13.5111 16.0977 13.804 15.8048C14.0969 15.5119 14.5718 15.5119 14.8647 15.8048L15.2517 16.1918V6.66444C15.2517 6.25023 15.5875 5.91444 16.0017 5.91444ZM7.33142 8.58223C6.91721 8.58223 6.58142 8.91802 6.58142 9.33223C6.58142 9.74644 6.91721 10.0822 7.33142 10.0822H12C12.4142 10.0822 12.75 9.74644 12.75 9.33223C12.75 8.91802 12.4142 8.58223 12 8.58223H7.33142ZM7.91528 12C7.91528 11.5858 8.25107 11.25 8.66528 11.25H12C12.4142 11.25 12.75 11.5858 12.75 12C12.75 12.4142 12.4142 12.75 12 12.75H8.66528C8.25107 12.75 7.91528 12.4142 7.91528 12ZM9.599 13.9178C9.18479 13.9178 8.849 14.2536 8.849 14.6678C8.849 15.082 9.18479 15.4178 9.599 15.4178H12C12.4142 15.4178 12.75 15.082 12.75 14.6678C12.75 14.2536 12.4142 13.9178 12 13.9178H9.599Z" fill="currentColor"/>
</svg>
