<svg width="24" height="24" viewBox="0 0 24 24" fill="none" xmlns="http://www.w3.org/2000/svg">
<path fill-rule="evenodd" clip-rule="evenodd" d="M6.58579 5.58579C6 6.17157 6 7.11438 6 9V15C6 16.8856 6 17.8284 6.58579 18.4142C7.17157 19 8.11438 19 10 19H14C15.8856 19 16.8284 19 17.4142 18.4142C18 17.8284 18 16.8856 18 15V9C18 7.11438 18 6.17157 17.4142 5.58579C16.8284 5 15.8856 5 14 5H10C8.11438 5 7.17157 5 6.58579 5.58579ZM8.5 8C8.22386 8 8 8.22386 8 8.5C8 8.77614 8.22386 9 8.5 9H15.5C15.7761 9 16 8.77614 16 8.5C16 8.22386 15.7761 8 15.5 8H8.5ZM8 11.5C8 11.2239 8.22386 11 8.5 11H15.5C15.7761 11 16 11.2239 16 11.5C16 11.7761 15.7761 12 15.5 12H8.5C8.22386 12 8 11.7761 8 11.5ZM8.5 14C8.22386 14 8 14.2239 8 14.5C8 14.7761 8.22386 15 8.5 15H13.5C13.7761 15 14 14.7761 14 14.5C14 14.2239 13.7761 14 13.5 14H8.5Z" fill="currentColor"/>
</svg>
