<svg width="24" height="24" viewBox="0 0 24 24" fill="none" xmlns="http://www.w3.org/2000/svg">
<path fill-rule="evenodd" clip-rule="evenodd" d="M8.40668 19.3573C7.97984 19.5777 7.46346 19.5389 7.07518 19.2572C6.6869 18.9755 6.49425 18.5 6.57844 18.031L7.25971 14.1677L4.39145 11.4483C4.04086 11.1175 3.91237 10.6175 4.06072 10.1613C4.20907 9.70498 4.60811 9.37284 5.08789 9.30632L9.07027 8.74311L10.8682 5.19477C11.0814 4.76922 11.5199 4.5 12 4.5C12.4801 4.5 12.9186 4.76922 13.1318 5.19477L14.9297 8.74311L18.9121 9.30632C19.3919 9.37284 19.7909 9.70498 19.9393 10.1613C20.0876 10.6175 19.9591 11.1175 19.6085 11.4483L16.7403 14.1677L17.4216 18.0318C17.5057 18.5008 17.3131 18.9764 16.9248 19.2581C16.5365 19.5398 16.0202 19.5786 15.5933 19.3581L12 17.5211L8.40668 19.3573Z" stroke="currentColor" stroke-width="1.5"/>
</svg>
