<svg xmlns="http://www.w3.org/2000/svg" width="24" height="24" viewBox="0 0 24 24" fill="none">
    <path fill-rule="evenodd" clip-rule="evenodd" d="M6.34313 11.25C5.92892 11.25 5.59313 11.5858 5.59313 12C5.59313 12.4142 5.92892 12.75 6.34313 12.75L11.25 12.75L11.25 17.6569C11.25 18.0711 11.5858 18.4069 12 18.4069C12.4142 18.4069 12.75 18.0711 12.75 17.6569L12.75 12.75H17.6568C18.0711 12.75 18.4068 12.4142 18.4068 12C18.4068 11.5858 18.0711 11.25 17.6568 11.25H12.75L12.75 6.34315C12.75 5.92893 12.4142 5.59315 12 5.59315C11.5858 5.59315 11.25 5.92893 11.25 6.34315L11.25 11.25L6.34313 11.25Z" fill="currentColor"/>
</svg>