<svg width="24" height="24" viewBox="0 0 24 24" fill="none" xmlns="http://www.w3.org/2000/svg">
<path fill-rule="evenodd" clip-rule="evenodd" d="M15.8047 16.8996C12.9565 19.2013 8.77166 19.0284 6.12426 16.381C3.29191 13.5487 3.29191 8.95658 6.12426 6.12425C8.9566 3.29192 13.5487 3.29192 16.3811 6.12425C19.0285 8.77166 19.2013 12.9566 16.8996 15.8047L19.7732 18.6784C20.0756 18.9807 20.0756 19.4709 19.7732 19.7732C19.4709 20.0756 18.9807 20.0756 18.6784 19.7732L15.8047 16.8996ZM7.21913 7.21912C9.44679 4.99147 13.0585 4.99147 15.2862 7.21912C17.4932 9.42608 17.5137 12.9915 15.3477 15.2237C15.325 15.2418 15.3032 15.2613 15.2822 15.2822C15.2613 15.3032 15.2418 15.3251 15.2237 15.3477C12.9915 17.5136 9.42609 17.4931 7.21913 15.2862C4.99148 13.0585 4.99148 9.44677 7.21913 7.21912Z" fill="currentColor"/>
</svg>
