<svg width="24" height="24" viewBox="0 0 24 24" fill="none" xmlns="http://www.w3.org/2000/svg">
<path fill-rule="evenodd" clip-rule="evenodd" d="M14.6594 9.20297C14.9851 9.49323 15.4912 9.47184 15.7897 9.15519C16.0883 8.83854 16.0663 8.34655 15.7406 8.05629L12.5406 5.20444C12.2347 4.93185 11.7653 4.93185 11.4594 5.20444L8.25942 8.05629C7.93373 8.34655 7.91173 8.83854 8.21028 9.15519C8.50883 9.47184 9.01489 9.49323 9.34058 9.20297L12 6.83289L14.6594 9.20297ZM9.34059 14.797C9.0149 14.5068 8.50884 14.5282 8.21029 14.8448C7.91174 15.1615 7.93374 15.6535 8.25943 15.9437L11.4594 18.7956C11.7653 19.0681 12.2347 19.0681 12.5406 18.7956L15.7406 15.9437C16.0663 15.6535 16.0883 15.1615 15.7897 14.8448C15.4912 14.5282 14.9851 14.5068 14.6594 14.797L12 17.1671L9.34059 14.797Z" fill="currentColor"/>
</svg>
