<svg width="24" height="24" viewBox="0 0 24 24" fill="none" xmlns="http://www.w3.org/2000/svg">
<path d="M15.1112 8.81817C14.6817 8.81817 14.3335 8.45186 14.3335 7.99999V6.9241L14.3333 6.90918L14.3335 6.89427V5.81818C14.3335 5.36631 14.6817 5 15.1112 5C15.5408 5 15.889 5.36631 15.889 5.81818V6.09101H18.2222C18.6518 6.09101 19 6.45732 19 6.90918C19 7.36105 18.6518 7.72736 18.2222 7.72736H15.889V7.99999C15.889 8.45186 15.5408 8.81817 15.1112 8.81817Z" fill="currentColor"/>
<path d="M5.77778 6.09097C5.34822 6.09097 5 6.45728 5 6.90915C5 7.36102 5.34822 7.72733 5.77778 7.72733H11.3086C11.7382 7.72733 12.0864 7.36102 12.0864 6.90915C12.0864 6.45728 11.7382 6.09097 11.3086 6.09097H5.77778Z" fill="currentColor"/>
<path d="M11.9135 12C11.9135 11.5482 12.2618 11.1819 12.6913 11.1819H18.2222C18.6517 11.1819 19 11.5482 19 12C19 12.4519 18.6517 12.8182 18.2222 12.8182H12.6913C12.2618 12.8182 11.9135 12.4519 11.9135 12Z" fill="currentColor"/>
<path d="M5.77778 11.1819C5.34822 11.1819 5 11.5482 5 12C5 12.4519 5.34822 12.8182 5.77778 12.8182H8.11124V13.091C8.11124 13.5428 8.45946 13.9092 8.88902 13.9092C9.31857 13.9092 9.66679 13.5428 9.66679 13.091V10.9092C9.66679 10.4573 9.31857 10.091 8.88902 10.091C8.45946 10.091 8.11124 10.4573 8.11124 10.9092V11.1819H5.77778Z" fill="currentColor"/>
<path d="M15.889 16V16.2727H18.2222C18.6518 16.2727 19 16.639 19 17.0909C19 17.5427 18.6518 17.9091 18.2222 17.9091H15.889V18.1818C15.889 18.6337 15.5408 19 15.1112 19C14.6817 19 14.3335 18.6337 14.3335 18.1818V17.1058L14.3333 17.0909L14.3335 17.076V16C14.3335 15.5481 14.6817 15.1818 15.1112 15.1818C15.5408 15.1818 15.889 15.5481 15.889 16Z" fill="currentColor"/>
<path d="M5.77778 16.2728C5.34822 16.2728 5 16.6391 5 17.0909C5 17.5428 5.34822 17.9091 5.77778 17.9091H11.3086C11.7382 17.9091 12.0864 17.5428 12.0864 17.0909C12.0864 16.6391 11.7382 16.2728 11.3086 16.2728H5.77778Z" fill="currentColor"/>
</svg>
