<svg width="24" height="24" viewBox="0 0 24 24" fill="none" xmlns="http://www.w3.org/2000/svg">
<path fill-rule="evenodd" clip-rule="evenodd" d="M4.58579 7.58579C4 8.17157 4 9.11438 4 11V13C4 14.8856 4 15.8284 4.58579 16.4142C5.17157 17 6.11438 17 8 17H14.7519C15.635 17 16.0765 17 16.467 16.8249C16.8574 16.6499 17.1511 16.3202 17.7385 15.6608L18.6294 14.6608C19.7574 13.3947 20.3214 12.7617 20.3214 12C20.3214 11.2383 19.7574 10.6053 18.6294 9.33917L17.7385 8.33918C17.1511 7.6798 16.8574 7.35012 16.467 7.17506C16.0765 7 15.635 7 14.7519 7H8C6.11438 7 5.17157 7 4.58579 7.58579ZM16 13C16.5523 13 17 12.5523 17 12C17 11.4477 16.5523 11 16 11C15.4477 11 15 11.4477 15 12C15 12.5523 15.4477 13 16 13Z" fill="currentColor"/>
</svg>
