<svg xmlns="http://www.w3.org/2000/svg" width="72" height="72" viewBox="0 0 72 72" fill="none">
    <rect width="72" height="72" rx="36" fill="#171717"/>
    <path d="M21.4412 48.221H29.7221V24.8507H35.3173C38.8236 24.8507 41.7145 25.9316 43.9899 28.0935C46.2653 30.2553 47.403 33.2372 47.403 37.039C47.403 40.8409 46.2653 42.8164 43.9899 44.9782C41.7145 47.1401 38.8236 48.221 35.3173 48.221H29.7221V56.6075H35.2614C41.3042 56.6075 46.2839 54.7252 50.2006 50.9606C54.1173 47.196 56.0756 42.5555 56.0756 37.039C56.0756 31.1871 54.1359 26.4721 50.2565 22.8938C46.4145 19.2783 41.4161 17.4706 35.2614 17.4706H21.4412V48.221Z" fill="white"/>
    <rect x="20.1177" y="24.8824" width="12.7059" height="8.47059" fill="#171717"/>
</svg>
