<svg class="logo__fullsize" fill="none" height="24" viewBox="0 0 116 24" width="116" xmlns="http://www.w3.org/2000/svg"><g fill="#171717"><path d="m3 17.7143h4.30372v4.2857h2.87888c3.1405 0 5.7285-.9619 7.7641-2.8857 2.0355-1.9238 3.0533-4.2953 3.0533-7.1143 0-2.99048-1.0081-5.4-3.0242-7.22857-1.9968-1.84762-4.5945-2.77143-7.7932-2.77143h-7.1826v3.77181l7.2116-.00038c1.8223 0 3.3247.55238 4.5073 1.65714s1.7738 2.62853 1.7738 4.57143-.5912 2.9524-1.7738 4.0571c-1.1826 1.1048-2.685 1.6572-4.5073 1.6572h-2.90788v-7.6551h-4.30372z"/><path d="m66.0805 2.51995c0 .73616.2466 1.3402.7398 1.8121.4933.4719 1.1098.70785 1.8497.70785s1.3564-.23595 1.8497-.70785c.4932-.4719.7399-1.07594.7399-1.8121 0-.73617-.2467-1.3402-.7399-1.8121-.4933-.4719-1.1098-.70785-1.8497-.70785s-1.3564.23595-1.8497.70785c-.4932.4719-.7398 1.07593-.7398 1.8121z"/><path d="m66.6211 17.7529v-10.61777h4.1262v10.61777z"/><path d="m74.5452 17.7529h4.1262v-4.2754c0-.7551.2371-1.378.7114-1.8687.4743-.5097 1.1098-.7645 1.9066-.7645.7209 0 1.328.2454 1.8212.7361.5123.4908.7684 1.1232.7684 1.8971v8.5225h4.1262v-9.9665c0-1.4157-.5028-2.62381-1.5082-3.62423-.9865-1.01931-2.2766-1.52896-3.8701-1.52896-.8917 0-1.6885.1982-2.3904.59459-.7019.37752-1.2236.8683-1.5651 1.47233v-1.8121h-4.1262z"/><path d="m32.9638 22h3.8539v-8.9472c0-1.5667-.5881-2.9824-1.7643-4.24714-1.1762-1.28357-2.8552-1.92535-5.0368-1.92535-1.5936 0-2.9405.36808-4.0409 1.10424-1.1003.71729-1.9255 1.68941-2.4757 2.91635l3.301 1.6988c.1897-.5285.5312-.9909 1.0244-1.3873.4933-.4153 1.1857-.623 2.0773-.623.8348 0 1.4988.2266 1.992.6796.5122.4341.7683.8777.7683 1.3307v.085l-3.8701.2265c-1.6694.0944-2.9689.5568-3.8985 1.3874-.9106.8305-1.3659 1.9442-1.3659 3.341v.0149c0 .0139.0001.0279.0002.0418h4.2351c-.0158-.0808-.0238-.1657-.0238-.2549 0-.3397.1139-.6229.3415-.8494.2466-.2265.5786-.3492.996-.3681l3.4797-.2164.4066-.0809z"/><path d="m40.5306 17.7529v-10.61777h4.1262v1.8121c.3415-.60403.8537-1.09481 1.5367-1.47233.683-.39639 1.4703-.59459 2.3619-.59459 1.8402 0 3.263.66066 4.2685 1.98198 1.1003-1.32132 2.618-1.98198 4.553-1.98198 1.6126 0 2.969.51909 4.0694 1.55727 1.1003 1.01931 1.6504 2.22742 1.6504 3.62422v9.9382h-4.1262v-8.5225c0-.7739-.2466-1.4063-.7399-1.8971-.4742-.4907-1.0718-.7361-1.7927-.7361-.7968 0-1.4228.2548-1.8782.7645-.4553.4907-.6829 1.1136-.6829 1.8687v4.2754h-4.1262v-4.2754c0-.7739-.2466-1.4063-.7399-1.8971-.4743-.4907-1.0719-.7361-1.7928-.7361-.7968 0-1.4228.2548-1.8781.7645-.4553.4907-.683 1.1136-.683 1.8687v4.2754z"/><path d="m91.5207 17.6963v-10.56117h4.1262v10.56117z"/><path d="m103.571 15.8275v1.8688h-4.1263v-16.64868h4.1263v10.58948h1.679l3.073-4.50197h4.838l-4.553 6.59717 4.638 8.2677h-4.695l-3.5-6.1725z"/><path d="m91.7199 4.33205c-.4933-.4719-.7399-1.07594-.7399-1.8121 0-.73617.2466-1.3402.7399-1.8121.4932-.4719 1.1098-.70785 1.8497-.70785.7398 0 1.3564.23595 1.8496.70785.4933.4719.7399 1.07593.7399 1.8121 0 .73616-.2466 1.3402-.7399 1.8121-.4932.4719-1.1098.70785-1.8496.70785-.7399 0-1.3565-.23595-1.8497-.70785z"/></g></svg>